<svg xmlns="http://www.w3.org/2000/svg" viewBox="0 0 372.77 311.82"><defs><style>.cls-1{fill:#2fabe2;}</style></defs><g id="Layer_2" data-name="Layer 2"><g id="Layer_1-2" data-name="Layer 1"><path class="cls-1" d="M74.59,154.37c-10.08-8.29-20.46-10.24-33.13-9.77-12,.66-22.44,4.61-30.67,13.73-8,8.93-11,20.34-10.75,32.14C.18,197-.2,203.73.17,210.2c.65,11.39,5.49,22.4,14.23,29.88,8.78,7.77,22.48,11.41,34.12,10.16,12.33-1,22.57-4.83,30.77-14.4,7.15-8.34,10.06-18.47,10.23-29.28C89.82,187.24,91.18,168,74.59,154.37ZM66,198.91c-.35,7.74.84,15.77-5.12,22.16-3.82,4.11-8.87,5.39-14.21,5.62-21,1.06-24-12.18-23.09-29.55.41-8-1.18-16.36,4.87-23.14,3.79-4.26,8.89-5.56,14.29-5.88H43C64.65,167,66.78,181.53,66,198.91Z"/><path class="cls-1" d="M281.6,208.46c-.54-11.58-4.2-21.49-13.2-29.2-8.24-7.06-18.72-9.3-29.4-8.73a3.23,3.23,0,0,0-.42.06c-11.09,1.16-19.78,4.66-27,13.45-7.57,9.27-9.44,21.93-8.18,33.51,2.52,23.15,20,35.56,42.51,34.09a36.93,36.93,0,0,0,26.05-12C279.59,231.21,282.11,219.5,281.6,208.46Zm-36.94,21.22c-4.62.1-10.34-.19-14.1-3.29-7-5.81-6.88-22-1.64-28.89,2.54-3.33,7.32-4.45,11.21-4.83,4-.7,10.21.42,13.55,2.88s5.27,6.85,5.56,10.82C260.18,219,258.68,227.93,244.66,229.68Z"/><path class="cls-1" d="M329.64,170.59c11.14-1.41,23.91,2.66,31.94,10.55a36.26,36.26,0,0,1,9.72,16.93c1.94,7.54,1.4,17.41,1.39,25.37l0,26.94h-23.6c.23-12.51-.08-25.11.05-37.63.1-9.85-1.39-16.39-12.13-18.46-8.36-1.27-17.24,1.42-18.79,10.71-.89,5.32-.52,11.65-.52,17.11v28.27H294.1v-26.8c0-13.9-1.19-27.67,8.3-39.19C309.82,175.36,318.25,171.77,329.64,170.59Z"/><path class="cls-1" d="M142.05,172c3.63-.17,7.52-.13,11.18-.16-.3,7.08,0,16.43,0,23.61q-3.9,0-7.78,0c-6.84.16-17.17,1.21-18,10-1.11,11.35-.21,23.08-.5,34.5-.09,3.34-.07,7.06.06,10.39h-23.7c.3-9.7-.13-19.63,0-29.36.12-7.43-.42-13.65,1.22-21C108.69,181,123.94,173.21,142.05,172Z"/><path class="cls-1" d="M164.74,174.17c7.79-.13,15.89,0,23.7,0-.18,12,0,24.35,0,36.39,0,13.22-.13,26.64,0,39.85l-23.66,0Z"/><path class="cls-1" d="M235.43,0c.53,1.22.48,4.08.52,5.43.49,17.72-8,34-20.48,46.33C197.9,69.13,172.79,79.53,148.35,82a162.58,162.58,0,0,1-18.47.54l-1.21-4.1a59.63,59.63,0,0,1-1.75-18.91c.12-1.59.22-3.19.27-4.78a48.82,48.82,0,0,0,9.31,2.07c27.49,3.27,55.34-5.32,77.14-22.14C224.19,26.59,233.68,13.29,235.43,0Z"/><path class="cls-1" d="M183.82,3.89c9.55-.65,20.81,2,29.32,6.33,2.87,1.46,5.22,3,8,4.62a94.82,94.82,0,0,1-8.63,10.64c-6.32-4.79-16-7.83-23.9-8.09a45.59,45.59,0,0,0-34,12.68c-6.28,6.07-9.36,11.45-12.27,19.55-4.34-.85-9.13-1.59-13.52-2.38.87-2.08,1.59-4.38,2.48-6.52a59.18,59.18,0,0,1,10-16.26C152.51,11.6,167,5.05,183.82,3.89Z"/><path class="cls-1" d="M240.26,38.23a11.94,11.94,0,0,1,1.39,2.63A60.84,60.84,0,0,1,246,60.39a59.36,59.36,0,0,1-15.64,43.19c-11.25,12.46-26.57,18.68-43.13,19.52-2.25,0-4.3-.12-6.54-.25,10.25-5.64,18.26-10.59,27.14-18.39,15-13.21,28-31.66,31.48-51.7A55.5,55.5,0,0,0,240.2,44c0-1.74-.08-3.91,0-5.55Z"/><path class="cls-1" d="M234.49,40.67c.55,1.81-6.35,15.22-7.71,17.14-14.08,19.84-36.25,35.81-59.1,43.35a118.83,118.83,0,0,1-14,3.73c-2.84.56-5.72.9-8.53,1.52-2.07-2-3.7-3.93-5.56-6.14a99.47,99.47,0,0,1-6.26-9.39,153.11,153.11,0,0,0,24-1.92c28-4.72,56-18.89,73-42.17C231.79,44.8,233.06,42.68,234.49,40.67Z"/><path class="cls-1" d="M271.05,277c-2.77.57-5.44,1.13-7,3.78-2.35,4.08-2.41,9.59-1.38,14.06,1.52,6.61,6.7,7.52,12.55,7.05,5.73-1.11,7.77-4.69,8.26-10.16C284.29,282.9,281.27,276.08,271.05,277Zm7.07,13.27c-.06,3.41-.72,6.26-4.33,7.13-3.24-.05-5.59-.6-5.93-4.34-.41-4.48-1.26-10.58,4.44-11.51C277.91,281.75,278.22,285.64,278.12,290.29Z"/><path class="cls-1" d="M316.2,277.56c.94,0,4.89-.15,5.45.21-1.65,7.69-3.55,15.9-5,23.58-2.82-.06-5.83,0-8.67,0a58,58,0,0,0-1.24-6q-1.12-4.86-2.13-9.75L301,301.36c-2.8-.06-5.74,0-8.55,0-.83-4.45-1.86-9.08-2.8-13.51-.68-3.22-1.42-7.17-2.3-10.3,1.8,0,3.7,0,5.51,0,1.23,6.5,2.49,13.79,4,20.19a85.84,85.84,0,0,0,2.45-9.21c.82-3.41,1.79-7.11,2.42-10.53l5.68,0,2.8,11.81c.59,2.47,1.24,5.53,2,7.89a75.49,75.49,0,0,0,1.73-8.09C314.69,285.64,315.53,281.54,316.2,277.56Z"/><path class="cls-1" d="M344.55,293c-.31-4.78,1.87-12.86-3.73-15.28a15.63,15.63,0,0,0-7-.67c-2.41.34-4.82.63-7.2,1.17.07,1.25.2,2.76.21,4,1.63-.07,3.28-.23,4.91-.35,4.28-.34,7.56-1.15,7.5,4.25v.34c-6.64.94-15.39-.32-13.89,9.88a6.49,6.49,0,0,0,2.62,4.61c3.38,1.75,6.67,1.23,10.2.14.64-.22,1.28-.44,1.92-.7a12.85,12.85,0,0,0,6.33,1.8,39.53,39.53,0,0,0,.3-4.22C343.73,296.72,344.75,295.91,344.55,293Zm-5.32,3.59a23,23,0,0,1-6.05,1l-.08,0c-2.48-.51-3.15-3.25-1.94-5.25.83-1.36,4.2-1.44,5.81-1.61.52-.09,1.68-.13,2.26-.16Z"/><path class="cls-1" d="M349.15,277.57l5.45-.05c.35,1.84,1.53,6.06,2.06,8,.85,3.19,2.17,9.36,3.49,12.13a70.67,70.67,0,0,0,2.54-8.67q1.51-5.73,2.93-11.49c1.82.06,3.69,0,5.51,0-1.33,4.5-2.54,9.55-3.79,14.13L362,311.82c-1.86-.07-3.58-.07-5.44-.06,1-3.46,2-6.93,3-10.42l-4.17,0c-.46-2.49-1.53-6.13-2.19-8.66Q351.18,285.1,349.15,277.57Z"/><path class="cls-1" d="M229.84,277c10.13-.66,9.51,7.17,9.6,14.74,0,3.18,0,6.39,0,9.58H234c0-4.59.1-9.2-.05-13.79-.18-5.38-1.57-6-6.52-5.37-.88.18-1.91.53-2.79.8.28,5.74.05,12.49.11,18.37h-5.53q.1-11.9,0-23.79a42.62,42.62,0,0,1,5.38.11,3.37,3.37,0,0,0,.06,1C224.94,278.64,228.78,277.26,229.84,277Z"/><path class="cls-1" d="M252.56,267.11a58.75,58.75,0,0,1,6.89.46c0,1.52,0,3.09,0,4.61-6.06-.52-6.43-.64-6.84,5.38l6.41,0c-.06,1.49,0,3.15,0,4.65l-6.34,0c.16,4.72.07,9.74.07,14.48,0,1.64,0,3.05.08,4.69h-5.31V282.14c-1,0-2,.08-3,.14,0-1.58,0-3.17-.06-4.75h3C247.43,272.59,246.8,268.55,252.56,267.11Z"/><path class="cls-1" d="M206.2,268.7h5.6c-.25,10.13-.17,22.48,0,32.64h-5.6c.16-3.93.05-8.7.05-12.69Q206.3,278.67,206.2,268.7Z"/></g></g></svg>